<?xml version="1.0" encoding="UTF-8" standalone="no"?>
<!DOCTYPE svg PUBLIC "-//W3C//DTD SVG 1.1//EN" "http://www.w3.org/Graphics/SVG/1.1/DTD/svg11.dtd">
<svg width="100%" height="100%" viewBox="0 0 77 81" version="1.1" xmlns="http://www.w3.org/2000/svg" xmlns:xlink="http://www.w3.org/1999/xlink" xml:space="preserve" xmlns:serif="http://www.serif.com/" style="fill-rule:evenodd;clip-rule:evenodd;stroke-linejoin:round;stroke-miterlimit:2;">
    <g transform="matrix(1,0,0,1,0.208544,-0.0605863)">
        <g transform="matrix(1,0,0,1,-0.208196,-0.095597)">
            <path d="M71.856,47.74C67.242,45.039 61.31,46.586 58.605,51.2C54.74,57.795 47.566,61.787 39.971,61.627C39.734,61.622 39.512,61.62 39.277,61.608C33.943,61.515 31.964,63.151 28.501,65.053C25.038,66.954 25.243,64.774 25.491,63.855C25.717,63.013 25.976,62.164 26.785,59.259C27.415,56.998 25.884,55.973 25.155,55.071C21.308,51.02 19.253,45.719 19.372,40.129C19.492,34.507 21.795,29.268 25.854,25.377C29.915,21.487 35.22,19.391 40.87,19.53C48.218,19.687 54.837,23.567 58.576,29.91C61.291,34.517 67.228,36.051 71.837,33.334C76.444,30.618 77.977,24.681 75.261,20.074C68.09,7.909 55.388,0.467 41.283,0.166C30.506,-0.069 20.252,3.922 12.454,11.393C4.658,18.863 0.238,28.922 0.009,39.716C-0.22,50.51 3.765,60.749 11.235,68.544C18.705,76.34 28.763,80.761 39.558,80.991C39.847,80.997 40.133,81 40.42,81C54.739,81 68.051,73.391 75.315,60.992C78.02,56.377 76.471,50.445 71.856,47.74Z" style="fill:rgb(255,206,88);fill-rule:nonzero;"/>
        </g>
        <g transform="matrix(1,0,0,1,-0.208196,-0.095597)">
            <path d="M33.874,37.759C33.874,39.904 32.135,41.643 29.99,41.643C27.845,41.643 26.106,39.904 26.106,37.759C26.106,35.614 27.845,33.875 29.99,33.875C32.135,33.875 33.874,35.614 33.874,37.759Z" style="fill:rgb(35,31,32);fill-rule:nonzero;"/>
        </g>
        <g transform="matrix(1,0,0,1,-0.208196,-0.095597)">
            <path d="M55.042,37.759C55.042,39.904 53.303,41.643 51.158,41.643C49.013,41.643 47.274,39.904 47.274,37.759C47.274,35.614 49.013,33.875 51.158,33.875C53.303,33.875 55.042,35.614 55.042,37.759Z" style="fill:rgb(35,31,32);fill-rule:nonzero;"/>
        </g>
        <g transform="matrix(1,0,0,1,-0.208196,-0.095597)">
            <path d="M40.509,50.125C37.743,50.125 35.484,47.962 35.366,45.2C35.339,44.555 35.838,44.011 36.483,43.983C37.131,43.968 37.672,44.455 37.7,45.1C37.764,46.608 38.998,47.789 40.509,47.789C42.018,47.789 43.252,46.609 43.319,45.103C43.347,44.458 43.936,43.962 44.537,43.988C45.181,44.016 45.681,44.562 45.652,45.206C45.53,47.965 43.272,50.125 40.509,50.125Z" style="fill:rgb(35,31,32);fill-rule:nonzero;"/>
        </g>
    </g>
</svg>
