<?xml version="1.0" encoding="UTF-8" standalone="no"?>
<!DOCTYPE svg PUBLIC "-//W3C//DTD SVG 1.1//EN" "http://www.w3.org/Graphics/SVG/1.1/DTD/svg11.dtd">
<svg width="100%" height="100%" viewBox="0 0 1297 342" version="1.1" xmlns="http://www.w3.org/2000/svg" xmlns:xlink="http://www.w3.org/1999/xlink" xml:space="preserve" xmlns:serif="http://www.serif.com/" style="fill-rule:evenodd;clip-rule:evenodd;stroke-linejoin:round;stroke-miterlimit:2;">
    <g transform="matrix(0.999069,0,0,1.01435,-2.19906,-0.916706)">
        <rect id="Artboard1" x="2.201" y="0.904" width="1297.97" height="337.08" style="fill:none;"/>
        <g id="Artboard11" serif:id="Artboard1">
            <g transform="matrix(4.17055,0,0,4.10771,4.1757,3.03415)">
                <path d="M89.723,40.196L89.723,40.091C89.723,29.645 97.596,21.09 108.882,21.09C115.811,21.09 119.958,23.399 123.369,26.759L118.225,32.69C115.391,30.118 112.503,28.543 108.83,28.543C102.635,28.543 98.173,33.687 98.173,39.986L98.173,40.091C98.173,46.39 102.531,51.639 108.83,51.639C113.029,51.639 115.601,49.959 118.488,47.335L123.631,52.531C119.852,56.573 115.653,59.092 108.567,59.092C97.753,59.092 89.723,50.747 89.723,40.196Z" style="fill:rgb(35,31,32);fill-rule:nonzero;"/>
                <rect x="125.946" y="20.145" width="7.978" height="38.318" style="fill:rgb(35,31,32);fill-rule:nonzero;"/>
                <path d="M138.125,30.328L146.103,30.328L146.103,58.463L138.125,58.463L138.125,30.328ZM137.915,20.145L146.313,20.145L146.313,27.231L137.915,27.231L137.915,20.145Z" style="fill:rgb(35,31,32);fill-rule:nonzero;"/>
                <path d="M148.571,44.553L148.571,44.448C148.571,36.417 154.712,29.803 163.321,29.803C168.623,29.803 171.929,31.588 174.553,34.527L169.671,39.776C167.887,37.886 166.103,36.679 163.268,36.679C159.279,36.679 156.444,40.196 156.444,44.342L156.444,44.448C156.444,48.752 159.226,52.217 163.584,52.217C166.26,52.217 168.097,51.061 170.04,49.224L174.71,53.949C171.982,56.94 168.832,59.092 163.215,59.092C154.765,59.092 148.571,52.584 148.571,44.553Z" style="fill:rgb(35,31,32);fill-rule:nonzero;"/>
                <path d="M176.237,20.145L184.215,20.145L184.215,40.563L193.558,30.328L203.112,30.328L192.404,41.403L203.479,58.463L194.241,58.463L187.05,46.915L184.215,49.907L184.215,58.463L176.237,58.463L176.237,20.145Z" style="fill:rgb(35,31,32);fill-rule:nonzero;"/>
                <path d="M204.48,21.719L212.564,21.719L212.564,36.259L227.47,36.259L227.47,21.719L235.554,21.719L235.554,58.463L227.47,58.463L227.47,43.713L212.564,43.713L212.564,58.463L204.48,58.463L204.48,21.719Z" style="fill:rgb(35,31,32);fill-rule:nonzero;"/>
                <path d="M258.338,42.191C257.867,38.621 255.767,36.207 252.408,36.207C249.101,36.207 246.949,38.569 246.319,42.191L258.338,42.191ZM238.498,44.553L238.498,44.448C238.498,36.417 244.219,29.803 252.408,29.803C261.803,29.803 266.108,37.099 266.108,45.078C266.108,45.708 266.055,46.442 266.003,47.178L246.424,47.178C247.211,50.799 249.731,52.689 253.3,52.689C255.977,52.689 257.919,51.849 260.125,49.802L264.691,53.844C262.066,57.098 258.286,59.092 253.195,59.092C244.745,59.092 238.498,53.161 238.498,44.553Z" style="fill:rgb(35,31,32);fill-rule:nonzero;"/>
                <rect x="268.736" y="20.145" width="7.978" height="38.318" style="fill:rgb(35,31,32);fill-rule:nonzero;"/>
                <path d="M302.121,44.448L302.121,44.342C302.121,39.671 298.971,36.574 295.245,36.574C291.518,36.574 288.421,39.671 288.421,44.342L288.421,44.448C288.421,49.119 291.518,52.217 295.245,52.217C298.971,52.217 302.121,49.172 302.121,44.448ZM280.547,30.328L288.526,30.328L288.526,34.37C290.468,31.745 293.145,29.803 297.292,29.803C303.853,29.803 310.099,34.947 310.099,44.342L310.099,44.448C310.099,53.844 303.959,58.988 297.292,58.988C293.041,58.988 290.416,57.046 288.526,54.789L288.526,66.861L280.547,66.861L280.547,30.328Z" style="fill:rgb(35,31,32);fill-rule:nonzero;"/>
                <path d="M71.856,47.74C67.242,45.039 61.31,46.586 58.605,51.2C54.74,57.795 47.566,61.787 39.971,61.627C39.734,61.622 39.512,61.62 39.277,61.608C33.943,61.515 31.964,63.151 28.501,65.053C25.038,66.954 25.243,64.774 25.491,63.855C25.717,63.013 25.976,62.164 26.785,59.259C27.415,56.998 25.884,55.973 25.155,55.071C21.308,51.02 19.253,45.719 19.372,40.129C19.492,34.507 21.795,29.268 25.854,25.377C29.915,21.487 35.22,19.391 40.87,19.53C48.218,19.687 54.837,23.567 58.576,29.91C61.291,34.517 67.228,36.051 71.837,33.334C76.444,30.618 77.977,24.681 75.261,20.074C68.09,7.909 55.388,0.467 41.283,0.166C30.506,-0.069 20.252,3.922 12.454,11.393C4.658,18.863 0.238,28.922 0.009,39.716C-0.22,50.51 3.765,60.749 11.235,68.544C18.705,76.34 28.763,80.761 39.558,80.991C39.847,80.997 40.133,81 40.42,81C54.739,81 68.051,73.391 75.315,60.992C78.02,56.377 76.471,50.445 71.856,47.74Z" style="fill:rgb(255,206,88);fill-rule:nonzero;"/>
                <path d="M33.874,37.759C33.874,39.904 32.135,41.643 29.99,41.643C27.845,41.643 26.106,39.904 26.106,37.759C26.106,35.614 27.845,33.875 29.99,33.875C32.135,33.875 33.874,35.614 33.874,37.759Z" style="fill:rgb(35,31,32);fill-rule:nonzero;"/>
                <path d="M55.042,37.759C55.042,39.904 53.303,41.643 51.158,41.643C49.013,41.643 47.274,39.904 47.274,37.759C47.274,35.614 49.013,33.875 51.158,33.875C53.303,33.875 55.042,35.614 55.042,37.759Z" style="fill:rgb(35,31,32);fill-rule:nonzero;"/>
                <path d="M40.509,50.125C37.743,50.125 35.484,47.962 35.366,45.2C35.339,44.555 35.838,44.011 36.483,43.983C37.131,43.968 37.672,44.455 37.7,45.1C37.764,46.608 38.998,47.789 40.509,47.789C42.018,47.789 43.252,46.609 43.319,45.103C43.347,44.458 43.936,43.962 44.537,43.988C45.181,44.016 45.681,44.562 45.652,45.206C45.53,47.965 43.272,50.125 40.509,50.125Z" style="fill:rgb(35,31,32);fill-rule:nonzero;"/>
            </g>
        </g>
    </g>
</svg>
